<svg id="svg" version="1.1" xmlns="http://www.w3.org/2000/svg" xmlns:xlink="http://www.w3.org/1999/xlink" width="400" height="302.262443438914" viewBox="0, 0, 400,302.262443438914"><g id="svgg"><path id="path0" d="M72.895 31.626 C 65.535 32.964,60.596 37.413,58.742 44.377 C 58.015 47.110,57.886 249.443,58.610 251.852 C 59.946 256.292,61.548 259.000,64.191 261.285 C 66.299 263.108,69.960 264.821,72.693 265.263 C 75.303 265.685,315.548 265.764,318.670 265.344 C 324.424 264.570,330.123 260.158,332.079 254.963 C 333.918 250.082,333.787 258.224,333.787 148.567 C 333.787 42.081,333.843 46.737,332.510 43.084 C 330.713 38.159,325.295 32.653,322.246 32.653 C 322.008 32.653,321.685 32.524,321.527 32.366 C 320.493 31.335,319.746 31.328,196.372 31.273 C 95.952 31.229,74.748 31.290,72.895 31.626 M107.677 55.139 C 110.477 56.691,112.088 58.323,113.832 61.376 C 114.723 62.935,114.720 69.779,113.827 71.353 C 106.048 85.074,86.385 78.093,90.148 62.946 C 90.706 60.702,94.295 55.933,95.427 55.933 C 95.656 55.933,95.843 55.824,95.843 55.689 C 95.843 53.818,104.564 53.413,107.677 55.139 M143.062 55.103 C 154.749 61.229,150.751 78.902,137.677 78.913 C 126.853 78.922,121.211 66.053,128.499 57.977 C 130.015 56.297,130.472 55.959,132.729 54.851 C 135.396 53.542,140.312 53.661,143.062 55.103 M177.719 54.678 C 184.942 58.004,187.466 64.992,184.122 72.411 C 182.089 76.924,174.071 80.270,169.700 78.430 C 165.836 76.803,162.661 74.367,162.661 73.029 C 162.661 72.772,162.550 72.562,162.415 72.562 C 161.629 72.562,160.763 69.317,160.754 66.340 C 160.730 57.670,170.151 51.194,177.719 54.678 M298.035 101.476 L 298.716 101.658 298.640 166.249 L 298.564 230.839 196.101 230.915 C 120.606 230.971,93.530 230.902,93.229 230.651 C 92.560 230.096,92.625 102.430,93.294 101.760 C 93.779 101.275,296.239 100.994,298.035 101.476 M191.655 113.074 C 190.631 113.615,189.923 114.423,189.057 116.037 C 188.673 116.751,188.358 118.126,187.623 122.298 C 186.991 125.885,186.759 126.115,182.918 126.953 C 182.336 127.080,180.790 127.762,179.483 128.469 C 176.877 129.879,176.369 129.898,174.906 128.646 C 169.918 124.379,165.981 123.096,163.182 124.826 C 162.275 125.386,156.916 130.748,156.916 131.094 C 156.916 131.175,156.627 131.632,156.274 132.109 C 154.711 134.224,155.613 136.849,159.965 142.857 C 161.555 145.051,161.557 145.121,160.119 147.903 C 159.404 149.285,158.514 151.407,158.141 152.620 C 157.336 155.238,156.902 155.595,154.018 156.016 C 147.735 156.934,145.973 157.713,144.660 160.151 C 143.810 161.730,143.759 171.315,144.596 172.152 C 144.887 172.443,145.125 172.841,145.125 173.037 C 145.126 174.163,148.986 175.493,154.464 176.254 C 157.236 176.639,157.335 176.724,158.138 179.387 C 158.498 180.580,159.381 182.762,160.100 184.236 C 160.901 185.878,161.328 187.106,161.202 187.410 C 160.840 188.289,159.263 190.476,158.992 190.476 C 158.848 190.476,158.730 190.618,158.730 190.791 C 158.730 191.149,157.487 192.994,157.143 193.147 C 157.018 193.202,156.916 193.396,156.916 193.577 C 156.916 193.758,156.697 194.148,156.429 194.444 C 155.403 195.578,155.546 199.126,156.689 200.885 C 157.475 202.096,162.551 206.889,163.629 207.439 C 165.971 208.634,169.083 207.960,172.247 205.572 C 173.113 204.919,173.901 204.384,173.999 204.384 C 174.096 204.384,174.544 204.040,174.994 203.619 C 176.323 202.376,177.737 202.495,179.681 204.012 C 179.882 204.169,180.317 204.373,180.650 204.466 C 180.983 204.559,182.003 204.930,182.918 205.289 C 183.832 205.649,185.021 206.075,185.560 206.235 C 186.798 206.604,187.204 207.335,187.638 209.977 C 189.146 219.176,189.792 219.803,197.755 219.803 C 204.736 219.803,206.430 218.707,207.098 213.757 C 207.222 212.842,207.471 211.481,207.652 210.733 C 207.834 209.985,208.091 208.833,208.224 208.173 C 208.477 206.919,208.751 206.699,211.187 205.804 C 213.847 204.826,215.199 204.262,216.974 203.391 L 218.831 202.480 219.922 203.154 C 220.522 203.525,221.013 203.938,221.013 204.071 C 221.013 204.204,221.251 204.396,221.542 204.496 C 222.093 204.687,222.541 204.967,225.404 206.917 C 228.906 209.300,231.145 208.697,235.662 204.152 C 240.796 198.986,240.911 196.897,236.393 190.913 C 235.750 190.060,235.223 189.201,235.223 189.003 C 235.223 188.805,235.019 188.565,234.769 188.469 C 234.270 188.277,234.139 186.551,234.589 186.077 C 234.738 185.919,235.354 184.565,235.955 183.069 C 236.557 181.572,237.251 179.987,237.497 179.545 C 237.743 179.104,237.944 178.549,237.944 178.313 C 237.944 178.077,238.263 177.584,238.652 177.218 C 239.341 176.571,240.155 176.357,245.049 175.536 C 248.634 174.935,249.606 174.288,250.956 171.608 C 251.549 170.430,251.605 160.814,251.020 160.620 C 250.813 160.550,250.642 160.331,250.642 160.133 C 250.642 158.249,247.188 156.769,241.033 156.015 C 239.090 155.777,237.944 155.115,237.944 154.230 C 237.944 153.657,235.997 148.825,235.018 146.969 C 234.029 145.096,234.192 144.679,237.806 139.834 C 240.870 135.725,240.372 132.670,235.922 128.280 C 231.658 124.073,229.040 123.187,226.104 124.956 C 224.467 125.944,221.620 127.875,220.365 128.850 C 218.943 129.954,218.890 129.948,215.703 128.352 C 214.217 127.607,212.767 126.995,212.482 126.991 C 212.197 126.987,211.516 126.788,210.970 126.549 C 210.424 126.310,209.605 126.036,209.150 125.940 C 208.606 125.825,208.282 125.534,208.201 125.090 C 208.133 124.718,207.918 123.598,207.723 122.600 C 207.529 121.602,207.249 119.902,207.103 118.821 C 206.655 115.510,205.795 114.086,203.568 112.961 C 202.046 112.192,193.164 112.276,191.655 113.074 M202.918 147.770 C 203.126 147.978,203.488 148.148,203.723 148.148 C 205.663 148.148,213.757 154.211,213.757 155.663 C 213.757 155.839,214.137 156.635,214.601 157.432 C 217.092 161.707,217.384 170.822,215.128 173.847 C 214.942 174.097,214.468 174.981,214.074 175.813 C 213.098 177.874,209.275 181.581,207.113 182.562 C 206.194 182.979,205.374 183.412,205.291 183.526 C 204.440 184.685,193.861 185.518,192.849 184.505 C 192.642 184.297,192.272 184.127,192.027 184.127 C 188.416 184.127,179.939 175.847,179.883 172.266 C 179.878 171.888,179.678 171.240,179.441 170.824 C 178.814 169.728,178.807 162.108,179.431 161.282 C 179.675 160.959,179.879 160.385,179.885 160.005 C 179.932 156.601,188.504 148.148,191.909 148.148 C 192.081 148.148,192.611 147.938,193.087 147.682 C 194.195 147.085,202.307 147.158,202.918 147.770 " stroke="none" fill="#050505" fill-rule="evenodd"></path><path id="path1" d="M0.000 151.172 L 0.000 302.343 200.000 302.343 L 400.000 302.343 400.000 151.172 L 400.000 0.000 200.000 0.000 L 0.000 0.000 0.000 151.172 M320.227 31.066 C 320.435 31.274,320.863 31.444,321.179 31.444 C 321.740 31.444,322.629 31.785,325.269 33.016 C 328.493 34.519,332.318 39.435,333.617 43.745 C 334.344 46.161,334.338 250.771,333.610 253.156 C 333.005 255.138,332.225 257.038,331.827 257.500 C 331.658 257.696,331.053 258.512,330.482 259.314 C 328.770 261.720,323.369 265.457,321.605 265.457 C 321.361 265.457,320.674 265.661,320.077 265.911 C 319.118 266.311,304.647 266.364,196.051 266.364 L 73.110 266.364 71.022 265.730 C 69.873 265.381,68.858 264.973,68.765 264.823 C 68.672 264.673,68.361 264.550,68.073 264.550 C 65.307 264.550,59.889 258.592,58.174 253.664 C 57.255 251.022,57.269 45.902,58.188 43.084 C 58.514 42.086,58.923 41.066,59.098 40.816 C 59.273 40.567,59.675 39.851,59.991 39.226 C 60.925 37.382,64.270 34.131,66.379 33.017 C 68.070 32.125,69.712 31.444,70.189 31.439 C 70.414 31.437,71.141 31.238,71.807 30.998 C 73.490 30.391,319.619 30.458,320.227 31.066 M97.471 55.709 C 94.934 57.055,91.610 60.197,91.610 61.248 C 91.610 61.434,91.397 62.012,91.137 62.533 C 89.381 66.053,91.968 74.134,95.444 75.987 C 98.662 77.703,98.932 77.775,102.192 77.783 C 109.153 77.800,113.746 73.254,113.726 66.366 C 113.719 63.787,113.064 61.085,112.289 60.443 C 112.057 60.250,111.867 59.957,111.867 59.792 C 111.867 59.160,108.786 56.593,106.931 55.680 C 104.050 54.261,100.177 54.273,97.471 55.709 M134.392 55.026 C 134.289 55.193,133.975 55.329,133.693 55.330 C 132.789 55.333,129.896 57.455,128.517 59.128 C 124.448 64.063,125.772 73.125,130.992 76.065 C 138.142 80.093,146.299 77.422,148.616 70.295 C 150.502 64.496,147.630 57.717,142.404 55.630 C 141.988 55.464,141.412 55.193,141.123 55.026 C 140.437 54.632,134.635 54.632,134.392 55.026 M169.161 55.285 C 167.294 56.055,164.172 58.265,164.172 58.818 C 164.172 58.987,162.941 60.805,162.645 61.073 C 160.573 62.953,161.248 70.338,163.753 73.191 C 163.984 73.453,164.172 73.795,164.172 73.950 C 164.172 75.562,169.343 77.807,173.091 77.823 C 176.333 77.836,180.801 76.328,180.801 75.220 C 180.801 75.089,180.956 74.981,181.146 74.981 C 182.632 74.981,184.556 70.131,184.564 66.364 C 184.576 61.162,182.781 58.297,177.887 55.707 C 175.681 54.539,171.465 54.336,169.161 55.285 M93.726 166.105 C 93.726 223.831,93.771 229.733,94.205 229.900 C 94.830 230.140,297.007 230.140,297.632 229.900 C 298.066 229.733,298.110 223.831,298.110 166.105 L 298.110 102.494 195.918 102.494 L 93.726 102.494 93.726 166.105 M203.023 111.898 C 206.361 112.739,207.589 115.126,208.477 122.503 C 208.655 123.979,209.567 125.472,210.291 125.472 C 211.204 125.472,216.132 127.390,216.478 127.880 C 217.248 128.971,219.748 128.714,221.169 127.398 C 226.858 122.126,230.811 122.107,236.133 127.327 C 240.122 131.240,240.936 132.966,240.333 136.228 C 240.004 138.010,239.801 138.381,236.802 142.700 L 235.022 145.264 236.181 147.490 C 236.818 148.714,237.339 149.916,237.339 150.161 C 237.339 150.406,237.505 150.904,237.707 151.267 C 237.909 151.630,238.283 152.532,238.538 153.271 C 239.067 154.801,239.306 154.911,243.235 155.437 C 248.829 156.187,251.079 157.701,251.947 161.300 C 252.385 163.116,252.544 168.712,252.191 169.917 C 252.021 170.499,251.811 171.322,251.725 171.746 C 251.166 174.497,248.242 176.136,242.654 176.830 C 240.093 177.148,238.989 177.704,238.492 178.928 C 238.310 179.376,237.976 180.172,237.750 180.696 C 237.524 181.220,237.339 181.806,237.339 181.998 C 237.339 182.415,235.607 185.970,235.204 186.379 C 234.699 186.892,234.900 187.521,236.070 189.088 C 236.702 189.935,237.529 191.138,237.909 191.761 C 238.288 192.385,238.689 192.896,238.800 192.897 C 239.145 192.901,239.805 194.481,240.189 196.221 C 240.906 199.470,240.213 200.843,235.586 205.339 C 231.109 209.689,228.638 210.226,224.943 207.650 C 218.182 202.937,219.011 203.225,216.241 204.624 C 214.958 205.272,213.081 206.047,212.070 206.344 C 209.336 207.150,208.314 208.547,208.314 211.481 C 208.314 215.178,206.797 218.275,204.114 220.055 C 202.138 221.365,192.236 220.825,190.231 219.298 C 188.970 218.338,187.150 214.184,187.150 212.266 C 187.150 208.918,186.005 207.113,183.395 206.347 C 182.384 206.050,180.519 205.271,179.250 204.616 C 176.565 203.230,177.037 203.112,172.461 206.305 C 167.856 209.516,164.834 209.829,162.056 207.380 C 159.361 205.005,156.311 201.900,156.311 201.531 C 156.311 201.306,156.107 201.045,155.858 200.949 C 155.608 200.853,155.404 200.438,155.404 200.027 C 155.404 199.616,155.268 199.196,155.102 199.093 C 154.936 198.990,154.800 198.242,154.800 197.430 C 154.800 196.618,154.936 195.870,155.102 195.767 C 155.268 195.664,155.404 195.337,155.404 195.039 C 155.404 194.741,155.813 193.934,156.311 193.245 C 156.810 192.557,157.218 191.886,157.218 191.756 C 157.218 191.625,157.627 191.071,158.125 190.525 C 158.624 189.979,159.033 189.421,159.033 189.285 C 159.033 189.150,159.228 188.876,159.467 188.678 C 160.246 188.031,160.334 186.652,159.685 185.265 C 159.353 184.556,159.003 183.772,158.908 183.522 C 158.812 183.273,158.614 182.865,158.466 182.615 C 157.853 181.575,157.218 179.827,157.218 179.175 C 157.218 177.804,155.592 177.057,151.927 176.745 C 148.664 176.467,144.520 174.578,144.520 173.368 C 144.520 173.160,144.371 172.941,144.189 172.880 C 143.308 172.587,142.643 164.228,143.316 161.905 C 144.116 159.140,145.126 157.744,146.956 156.874 C 148.855 155.971,149.620 155.790,155.339 154.888 C 156.343 154.729,157.218 153.626,157.218 152.518 C 157.218 152.245,157.404 151.660,157.630 151.218 C 160.353 145.907,160.523 145.204,159.505 143.467 C 159.065 142.716,158.574 142.101,158.415 142.101 C 158.256 142.101,158.125 141.909,158.125 141.673 C 158.125 141.437,158.023 141.199,157.899 141.144 C 157.626 141.022,156.311 139.179,156.311 138.917 C 156.311 138.816,156.107 138.528,155.858 138.279 C 155.608 138.029,155.404 137.571,155.404 137.260 C 155.404 136.949,155.268 136.611,155.102 136.508 C 154.936 136.405,154.800 135.589,154.800 134.694 C 154.800 133.799,154.936 132.983,155.102 132.880 C 155.268 132.777,155.404 132.425,155.404 132.097 C 155.404 131.769,155.608 131.422,155.858 131.326 C 156.107 131.231,156.311 130.977,156.311 130.764 C 156.311 130.411,161.219 125.267,162.454 124.324 C 165.302 122.151,168.378 122.767,173.394 126.519 C 176.499 128.841,177.900 129.191,178.987 127.917 C 179.320 127.527,181.956 126.359,183.522 125.908 C 186.029 125.186,186.042 125.171,186.646 122.417 C 188.874 112.261,189.493 111.644,197.523 111.592 C 199.819 111.577,202.294 111.715,203.023 111.898 M193.669 148.309 C 193.346 148.553,192.901 148.753,192.680 148.753 C 190.695 148.753,185.810 152.182,182.987 155.556 C 180.201 158.886,178.778 166.090,180.072 170.314 C 180.565 171.921,180.617 172.056,181.705 174.541 C 184.021 179.827,191.203 184.227,197.581 184.267 C 199.424 184.278,203.681 183.602,204.233 183.210 C 204.399 183.092,205.426 182.527,206.515 181.955 C 209.113 180.589,212.542 177.584,212.546 176.669 C 212.547 176.475,212.649 176.271,212.774 176.216 C 213.444 175.918,215.039 171.891,215.556 169.192 C 216.145 166.116,216.121 165.498,215.257 161.451 C 214.920 159.877,213.262 156.277,212.774 156.059 C 212.649 156.004,212.547 155.793,212.547 155.591 C 212.547 155.255,211.598 154.244,209.048 151.862 C 205.794 148.822,195.986 146.556,193.669 148.309 " stroke="none" fill="#fbfbfb" fill-rule="evenodd"></path><path id="path2" d="M57.818 47.468 C 57.818 48.050,57.880 48.288,57.956 47.997 C 58.032 47.706,58.032 47.230,57.956 46.939 C 57.880 46.648,57.818 46.886,57.818 47.468 M333.857 48.375 C 333.857 48.957,333.919 49.195,333.995 48.904 C 334.071 48.613,334.071 48.137,333.995 47.846 C 333.919 47.555,333.857 47.793,333.857 48.375 M101.209 54.338 C 101.750 54.405,102.634 54.405,103.175 54.338 C 103.715 54.271,103.273 54.216,102.192 54.216 C 101.111 54.216,100.669 54.271,101.209 54.338 M136.891 54.339 C 137.435 54.406,138.251 54.404,138.705 54.335 C 139.160 54.266,138.715 54.211,137.717 54.213 C 136.720 54.215,136.348 54.271,136.891 54.339 M172.260 54.338 C 172.800 54.405,173.685 54.405,174.225 54.338 C 174.766 54.271,174.324 54.216,173.243 54.216 C 172.162 54.216,171.720 54.271,172.260 54.338 M114.054 64.701 C 114.054 65.283,114.116 65.522,114.192 65.231 C 114.268 64.940,114.268 64.463,114.192 64.172 C 114.116 63.881,114.054 64.119,114.054 64.701 M90.189 66.515 C 90.189 67.430,90.246 67.804,90.315 67.347 C 90.384 66.890,90.384 66.141,90.315 65.684 C 90.246 65.227,90.189 65.601,90.189 66.515 M298.561 166.138 C 298.561 201.058,298.596 215.299,298.639 197.784 C 298.683 180.269,298.683 151.697,298.639 134.292 C 298.596 116.886,298.561 131.217,298.561 166.138 M195.843 112.091 C 196.882 112.150,198.583 112.150,199.622 112.091 C 200.661 112.032,199.811 111.983,197.732 111.983 C 195.654 111.983,194.803 112.032,195.843 112.091 M228.647 123.867 C 228.938 123.943,229.414 123.943,229.705 123.867 C 229.996 123.791,229.758 123.728,229.176 123.728 C 228.594 123.728,228.356 123.791,228.647 123.867 M235.072 126.984 C 235.721 127.649,236.321 128.193,236.404 128.193 C 236.487 128.193,236.024 127.649,235.374 126.984 C 234.725 126.319,234.125 125.775,234.042 125.775 C 233.959 125.775,234.422 126.319,235.072 126.984 M158.109 129.025 L 157.067 130.159 158.201 129.117 C 159.256 128.147,159.474 127.891,159.243 127.891 C 159.192 127.891,158.682 128.401,158.109 129.025 M237.642 129.554 C 238.206 130.136,238.735 130.612,238.819 130.612 C 238.902 130.612,238.508 130.136,237.944 129.554 C 237.380 128.972,236.850 128.496,236.767 128.496 C 236.684 128.496,237.078 128.972,237.642 129.554 M165.914 208.528 C 166.290 208.601,166.835 208.598,167.124 208.522 C 167.413 208.446,167.105 208.387,166.440 208.391 C 165.775 208.394,165.538 208.456,165.914 208.528 M144.596 230.612 C 172.823 230.655,219.014 230.655,247.241 230.612 C 275.469 230.570,252.373 230.535,195.918 230.535 C 139.463 230.535,116.368 230.570,144.596 230.612 M333.857 248.526 C 333.857 249.108,333.919 249.346,333.995 249.055 C 334.071 248.764,334.071 248.288,333.995 247.997 C 333.919 247.706,333.857 247.944,333.857 248.526 M57.818 249.131 C 57.818 249.713,57.880 249.951,57.956 249.660 C 58.032 249.369,58.032 248.893,57.956 248.602 C 57.880 248.311,57.818 248.549,57.818 249.131 " stroke="none" fill="#848484" fill-rule="evenodd"></path><path id="path3" d="M72.000 30.883 C 70.472 31.324,71.028 31.483,72.892 31.139 C 74.965 30.755,318.779 30.877,319.879 31.262 C 320.516 31.485,320.573 31.460,320.242 31.107 C 319.758 30.591,73.782 30.369,72.000 30.883 M68.632 31.924 C 64.889 33.574,61.331 36.581,59.991 39.226 C 59.674 39.851,59.288 40.542,59.133 40.760 C 58.543 41.591,57.769 44.343,57.799 45.503 C 57.817 46.226,57.877 46.408,57.947 45.956 C 58.957 39.426,63.856 33.713,70.144 31.734 C 70.759 31.540,70.787 31.492,70.295 31.477 C 69.962 31.466,69.214 31.667,68.632 31.924 M321.835 31.926 C 328.711 34.443,332.663 39.342,333.884 46.863 C 333.967 47.376,334.020 47.249,334.048 46.466 C 334.198 42.271,329.420 34.951,325.269 33.016 C 322.601 31.772,321.739 31.444,321.194 31.465 C 320.886 31.477,321.175 31.684,321.835 31.926 M57.592 149.660 C 57.596 250.199,57.608 252.336,58.178 253.817 C 60.091 258.792,65.418 264.599,68.016 264.540 C 68.271 264.534,67.771 264.197,66.904 263.791 C 63.566 262.230,60.012 257.795,58.428 253.212 C 57.938 251.795,57.896 245.312,57.747 149.358 L 57.589 47.014 57.592 149.660 M98.102 54.982 C 95.390 56.091,92.592 58.655,91.123 61.376 C 90.263 62.969,90.285 69.802,91.156 71.414 C 92.706 74.280,96.664 77.755,98.300 77.684 C 98.674 77.668,97.065 76.712,95.321 75.914 C 92.071 74.427,89.425 65.966,91.137 62.533 C 91.397 62.012,91.610 61.457,91.610 61.301 C 91.610 60.923,92.558 59.719,94.193 58.018 C 97.455 54.625,102.797 53.645,106.931 55.680 C 108.786 56.593,111.867 59.160,111.867 59.792 C 111.867 59.957,112.057 60.250,112.289 60.443 C 114.699 62.443,114.099 70.183,111.262 73.703 C 109.912 75.378,109.205 75.920,106.878 77.059 C 106.196 77.393,105.897 77.662,106.193 77.677 C 107.924 77.761,111.671 74.390,113.129 71.436 C 117.692 62.197,107.568 51.112,98.102 54.982 M133.485 54.993 C 125.117 58.509,123.046 68.927,129.443 75.324 C 130.180 76.061,133.121 77.707,133.660 77.684 C 134.041 77.668,132.496 76.742,130.726 75.926 C 129.478 75.350,127.362 72.333,126.580 70.014 C 124.803 64.748,127.397 58.404,132.323 55.964 C 133.128 55.565,134.023 55.123,134.312 54.982 C 135.044 54.623,140.483 54.658,141.123 55.026 C 141.412 55.193,141.988 55.464,142.404 55.630 C 151.042 59.079,151.569 72.005,143.259 76.630 C 141.177 77.789,141.273 78.120,143.377 77.035 C 152.016 72.580,151.506 59.601,142.524 55.314 C 140.256 54.232,135.683 54.069,133.485 54.993 M168.326 55.328 C 163.414 57.816,161.103 61.472,161.204 66.597 L 161.258 69.388 161.448 66.364 C 161.615 63.695,162.101 61.528,162.635 61.073 C 162.924 60.827,164.172 58.995,164.172 58.818 C 164.172 58.530,165.209 57.622,166.599 56.692 C 170.972 53.768,176.593 54.012,180.454 57.294 C 183.642 60.004,184.570 62.060,184.576 66.422 C 184.580 69.729,184.784 70.051,185.184 67.384 C 186.449 58.946,175.974 51.455,168.326 55.328 M161.460 69.766 C 161.469 70.024,162.465 71.888,163.540 73.661 C 164.490 75.227,168.255 77.903,169.108 77.619 C 169.253 77.571,168.597 77.128,167.651 76.634 C 165.898 75.720,164.172 74.373,164.172 73.920 C 164.172 73.781,163.979 73.453,163.743 73.191 C 163.506 72.928,162.955 71.999,162.517 71.126 C 161.778 69.651,161.439 69.215,161.460 69.766 M183.568 71.561 C 182.614 73.551,181.628 74.977,181.204 74.979 C 181.010 74.980,180.806 75.102,180.751 75.249 C 180.695 75.396,179.766 76.007,178.685 76.606 C 177.604 77.205,176.903 77.697,177.126 77.699 C 178.095 77.707,181.497 75.379,182.529 74.002 C 183.512 72.689,184.489 70.775,184.365 70.405 C 184.310 70.240,183.952 70.761,183.568 71.561 M99.425 78.047 C 100.778 78.547,102.972 78.634,104.289 78.240 C 105.592 77.849,105.535 77.838,102.205 77.823 C 100.206 77.814,99.048 77.907,99.425 78.047 M134.813 78.052 C 136.132 78.540,138.364 78.616,139.825 78.223 C 141.309 77.823,141.285 77.818,137.755 77.818 C 135.733 77.818,134.456 77.920,134.813 78.052 M170.306 78.058 C 171.052 78.519,173.733 78.613,175.166 78.229 C 176.616 77.841,176.590 77.835,173.291 77.835 C 171.451 77.835,170.108 77.936,170.306 78.058 M93.435 102.474 C 93.096 103.107,92.976 228.449,93.312 229.705 L 93.495 230.385 195.954 230.385 L 298.413 230.385 298.413 166.321 C 298.413 108.182,298.368 102.240,297.934 102.073 C 296.427 101.495,93.746 101.893,93.435 102.474 M298.110 166.105 C 298.110 223.831,298.066 229.733,297.632 229.900 C 297.007 230.140,94.830 230.140,94.205 229.900 C 93.771 229.733,93.726 223.831,93.726 166.105 L 93.726 102.494 195.918 102.494 L 298.110 102.494 298.110 166.105 M192.302 111.919 C 189.255 112.794,188.415 114.353,186.646 122.417 C 186.042 125.171,186.029 125.186,183.522 125.908 C 181.956 126.359,179.320 127.527,178.987 127.917 C 177.900 129.191,176.499 128.841,173.394 126.519 C 168.378 122.767,165.302 122.151,162.454 124.324 C 161.219 125.267,156.311 130.411,156.311 130.764 C 156.311 130.977,156.107 131.231,155.858 131.326 C 155.608 131.422,155.404 131.736,155.404 132.024 C 155.404 132.325,155.964 131.785,156.725 130.748 C 163.035 122.149,166.472 121.653,175.004 128.111 C 176.616 129.330,176.803 129.332,179.101 128.142 C 180.119 127.615,182.176 126.765,183.672 126.253 L 186.391 125.321 186.757 123.810 C 186.958 122.978,187.421 120.911,187.785 119.217 C 189.022 113.463,190.331 112.231,195.494 111.958 C 204.002 111.509,206.650 112.875,207.466 118.129 C 207.641 119.258,207.887 120.726,208.012 121.391 L 208.239 122.600 208.277 121.499 C 208.436 116.850,206.142 112.684,202.984 111.889 C 201.394 111.488,193.728 111.510,192.302 111.919 M208.340 123.261 C 208.277 124.861,208.784 125.374,211.090 126.044 C 212.307 126.399,214.412 127.231,215.768 127.894 C 218.885 129.420,218.605 129.454,221.955 127.144 C 228.953 122.318,230.942 122.469,236.625 128.262 C 237.811 129.471,239.064 131.005,239.408 131.670 C 239.816 132.460,240.038 132.680,240.047 132.304 C 240.072 131.240,235.367 126.110,232.761 124.361 C 229.884 122.428,225.210 123.652,221.169 127.398 C 219.748 128.714,217.248 128.971,216.478 127.880 C 216.138 127.399,211.209 125.472,210.316 125.472 C 209.761 125.472,208.932 124.488,208.625 123.464 C 208.412 122.752,208.362 122.716,208.340 123.261 M155.001 132.930 C 154.681 133.250,154.767 136.301,155.102 136.508 C 155.268 136.611,155.404 136.949,155.404 137.260 C 155.404 137.571,155.608 138.029,155.858 138.279 C 156.107 138.528,156.311 138.816,156.311 138.917 C 156.311 139.179,157.626 141.022,157.899 141.144 C 158.023 141.199,158.125 141.437,158.125 141.673 C 158.125 141.909,158.256 142.101,158.415 142.101 C 158.574 142.101,159.062 142.711,159.499 143.456 C 160.431 145.046,160.355 145.773,158.991 148.329 C 158.497 149.255,158.136 150.145,158.190 150.306 C 158.244 150.468,158.884 149.382,159.614 147.894 L 160.940 145.189 160.364 144.277 C 160.047 143.776,158.878 142.026,157.765 140.388 C 155.657 137.285,154.952 135.366,155.294 133.657 C 155.478 132.741,155.395 132.536,155.001 132.930 M240.080 134.857 C 240.057 137.157,239.713 137.907,236.651 142.330 L 234.602 145.289 235.553 147.045 C 236.418 148.642,237.759 151.923,238.167 153.439 C 238.515 154.731,239.442 155.344,241.373 155.558 C 247.865 156.280,251.037 158.017,251.632 161.175 C 251.768 161.898,251.770 161.899,251.811 161.209 C 251.978 158.382,248.690 156.168,243.235 155.437 C 239.306 154.911,239.067 154.801,238.538 153.271 C 238.283 152.532,237.909 151.630,237.707 151.267 C 237.505 150.904,237.339 150.406,237.339 150.161 C 237.339 149.916,236.818 148.714,236.181 147.490 L 235.022 145.264 236.802 142.700 C 237.781 141.290,238.906 139.643,239.301 139.040 C 240.184 137.694,240.797 134.625,240.388 133.602 C 240.158 133.028,240.095 133.285,240.080 134.857 M196.155 147.767 C 197.034 147.828,198.394 147.827,199.179 147.765 C 199.963 147.703,199.244 147.653,197.581 147.654 C 195.918 147.655,195.277 147.705,196.155 147.767 M191.988 148.579 C 180.075 153.451,175.680 165.785,182.177 176.115 C 186.223 182.549,196.060 186.353,202.570 184.001 L 203.930 183.510 202.721 183.678 C 202.056 183.771,200.697 183.986,199.700 184.156 C 193.184 185.270,184.333 180.541,181.705 174.541 C 180.617 172.056,180.565 171.921,180.072 170.314 C 178.778 166.090,180.201 158.886,182.987 155.556 C 185.810 152.182,190.695 148.753,192.680 148.753 C 192.901 148.753,193.346 148.553,193.669 148.309 C 194.483 147.693,193.942 147.780,191.988 148.579 M201.814 148.310 C 202.313 148.539,202.929 148.732,203.183 148.739 C 203.893 148.760,208.332 151.108,209.086 151.862 C 209.455 152.231,210.384 153.137,211.152 153.877 C 211.919 154.617,212.547 155.388,212.547 155.591 C 212.547 155.793,212.649 156.004,212.774 156.059 C 213.684 156.464,215.309 161.052,215.969 165.079 C 216.048 165.559,216.106 165.393,216.129 164.626 C 216.320 158.192,210.478 150.840,203.175 148.323 C 201.508 147.749,200.569 147.740,201.814 148.310 M157.545 151.428 C 157.366 151.764,157.218 152.259,157.218 152.527 C 157.218 153.627,156.340 154.730,155.339 154.888 C 149.659 155.784,148.891 155.946,149.144 156.199 C 149.329 156.384,155.927 155.178,156.508 154.853 C 156.767 154.708,157.244 153.805,157.568 152.846 C 158.162 151.086,158.149 150.300,157.545 151.428 M146.636 156.985 C 143.951 158.669,143.006 161.100,143.013 166.310 C 143.020 171.804,143.535 171.277,143.657 165.650 C 143.784 159.760,144.221 158.715,147.202 157.158 C 148.093 156.692,148.568 156.314,148.258 156.317 C 147.948 156.319,147.218 156.620,146.636 156.985 M251.861 166.138 C 251.861 168.981,251.957 170.221,252.154 169.917 C 252.315 169.667,252.447 167.967,252.447 166.138 C 252.447 164.308,252.315 162.608,252.154 162.358 C 251.957 162.054,251.861 163.295,251.861 166.138 M215.497 169.373 C 215.019 172.016,213.471 175.906,212.774 176.216 C 212.649 176.271,212.547 176.475,212.546 176.669 C 212.544 177.060,211.104 178.660,209.523 180.026 C 208.599 180.825,207.726 181.351,204.910 182.807 C 204.423 183.059,204.091 183.330,204.170 183.409 C 204.477 183.716,208.535 181.286,210.272 179.756 C 213.546 176.873,216.399 170.912,216.116 167.548 C 216.047 166.734,215.891 167.194,215.497 169.373 M251.591 171.057 C 251.411 174.055,248.307 175.706,240.916 176.736 C 239.167 176.979,238.560 177.620,237.639 180.197 C 237.253 181.277,236.416 183.265,235.778 184.614 C 234.356 187.622,234.278 187.080,236.595 190.325 C 240.034 195.142,240.688 197.212,239.639 199.957 C 238.936 201.799,232.497 208.122,231.028 208.414 C 228.092 208.997,226.615 208.516,222.827 205.740 C 218.871 202.842,218.961 202.863,216.327 204.183 C 215.089 204.804,213.111 205.626,211.930 206.011 C 209.383 206.841,208.650 207.488,208.444 209.088 L 208.290 210.280 208.790 208.928 C 209.395 207.291,209.715 207.038,212.070 206.344 C 213.081 206.047,214.958 205.272,216.241 204.624 C 219.011 203.225,218.182 202.937,224.943 207.650 C 228.638 210.226,231.109 209.689,235.586 205.339 C 240.213 200.843,240.906 199.470,240.189 196.221 C 239.805 194.481,239.145 192.901,238.800 192.897 C 238.689 192.896,238.288 192.385,237.909 191.761 C 237.529 191.138,236.702 189.935,236.070 189.088 C 234.900 187.521,234.699 186.892,235.204 186.379 C 235.607 185.970,237.339 182.415,237.339 181.998 C 237.339 181.806,237.524 181.220,237.750 180.696 C 237.976 180.172,238.310 179.376,238.492 178.928 C 238.989 177.704,240.093 177.148,242.654 176.830 C 248.623 176.089,252.290 173.754,251.760 171.030 C 251.633 170.377,251.631 170.377,251.591 171.057 M143.639 171.483 C 143.625 171.928,143.817 172.496,144.067 172.746 C 144.316 172.995,144.520 173.322,144.520 173.472 C 144.520 174.586,148.805 176.479,151.927 176.745 C 154.401 176.955,155.950 177.368,156.689 178.014 C 157.164 178.429,157.218 178.429,157.218 178.012 C 157.218 177.341,155.987 176.945,152.230 176.410 C 147.252 175.701,144.729 174.217,143.920 171.524 L 143.665 170.673 143.639 171.483 M157.241 179.204 C 157.229 179.572,157.413 180.320,157.650 180.867 C 157.887 181.413,158.158 182.063,158.253 182.313 C 158.347 182.562,158.545 182.971,158.692 183.220 C 160.240 185.835,160.520 187.804,159.467 188.678 C 159.228 188.876,159.033 189.150,159.033 189.285 C 159.033 189.421,158.624 189.979,158.125 190.525 C 157.627 191.071,157.218 191.625,157.218 191.756 C 157.218 191.886,156.810 192.557,156.311 193.245 C 155.813 193.934,155.404 194.713,155.404 194.977 C 155.404 195.240,155.684 194.934,156.026 194.295 C 156.369 193.657,156.778 192.979,156.937 192.788 C 157.768 191.790,160.349 188.125,160.601 187.584 C 160.829 187.096,160.650 186.469,159.782 184.712 C 159.171 183.476,158.354 181.580,157.967 180.499 C 157.580 179.418,157.253 178.835,157.241 179.204 M155.001 195.818 C 154.722 196.097,154.747 198.873,155.030 199.048 C 155.156 199.126,155.271 198.386,155.284 197.403 C 155.297 196.420,155.285 195.616,155.256 195.616 C 155.227 195.616,155.112 195.707,155.001 195.818 M155.404 200.241 C 155.404 200.534,155.608 200.853,155.858 200.949 C 156.107 201.045,156.311 201.306,156.311 201.531 C 156.311 201.900,159.361 205.005,162.056 207.380 C 164.834 209.829,167.856 209.516,172.461 206.305 C 177.037 203.112,176.565 203.230,179.250 204.616 C 180.519 205.271,182.384 206.050,183.395 206.347 C 186.025 207.119,187.150 208.917,187.150 212.348 C 187.150 212.752,187.361 213.540,187.618 214.100 L 188.086 215.117 187.919 214.210 C 187.827 213.711,187.534 212.079,187.268 210.582 C 186.703 207.395,186.365 206.947,183.931 206.152 C 181.557 205.377,180.024 204.715,178.331 203.734 L 176.919 202.917 175.610 203.787 C 174.890 204.265,173.621 205.145,172.789 205.742 C 168.708 208.673,165.527 209.299,163.067 207.656 C 161.563 206.651,156.963 202.103,156.085 200.752 C 155.627 200.049,155.404 199.881,155.404 200.241 M208.060 211.036 C 207.817 214.814,206.549 217.815,204.598 219.228 L 203.386 220.106 197.809 220.106 C 190.853 220.106,190.410 219.935,188.800 216.629 C 188.395 215.797,188.062 215.361,188.060 215.658 C 188.050 217.515,190.282 219.822,192.671 220.422 C 194.808 220.959,203.154 220.691,204.114 220.055 C 206.852 218.238,208.624 214.462,208.232 211.279 C 208.141 210.537,208.096 210.474,208.060 211.036 M333.835 250.319 C 333.730 252.581,332.170 256.535,330.547 258.655 C 328.296 261.594,325.166 263.846,321.391 265.242 C 321.044 265.370,321.068 265.415,321.492 265.433 C 323.278 265.510,328.698 261.820,330.482 259.314 C 331.053 258.512,331.658 257.696,331.827 257.500 C 332.750 256.429,334.180 251.727,334.010 250.322 L 333.884 249.282 333.835 250.319 M68.741 264.784 C 68.847 264.955,69.873 265.381,71.022 265.730 L 73.110 266.364 196.116 266.351 C 300.903 266.339,319.258 266.274,320.030 265.914 C 320.923 265.497,320.916 265.494,319.577 265.701 C 318.828 265.816,262.978 265.911,195.465 265.911 C 63.247 265.911,72.275 266.001,68.968 264.644 C 68.725 264.545,68.629 264.604,68.741 264.784 " stroke="none" fill="#a3a3a3" fill-rule="evenodd"></path><path id="path4" d="M73.923 31.054 C 69.295 31.701,65.921 33.368,62.485 36.705 C 60.957 38.188,59.064 41.252,60.317 40.212 C 60.567 40.005,60.771 39.649,60.771 39.421 C 60.771 38.135,66.271 33.683,69.237 32.568 C 73.258 31.056,66.910 31.122,196.825 31.229 C 319.679 31.329,320.495 31.336,321.527 32.366 C 321.685 32.524,322.008 32.653,322.246 32.653 C 326.143 32.653,331.656 39.201,333.192 45.654 C 333.489 46.901,333.744 47.546,333.759 47.086 C 333.959 41.000,328.546 34.430,321.187 31.827 L 318.821 30.990 196.825 30.958 C 129.728 30.941,74.422 30.984,73.923 31.054 M59.420 41.103 C 58.931 41.895,58.054 45.762,58.098 46.935 C 58.143 48.135,58.154 48.151,58.259 47.166 C 58.410 45.742,59.251 42.310,59.618 41.622 C 59.935 41.026,59.757 40.558,59.420 41.103 M57.897 148.299 C 57.897 203.341,57.932 225.813,57.974 198.237 C 58.017 170.661,58.017 125.627,57.974 98.161 C 57.932 70.696,57.897 93.258,57.897 148.299 M333.936 148.450 C 333.936 203.076,333.971 225.423,334.014 198.110 C 334.056 170.797,334.056 126.104,334.014 98.791 C 333.971 71.478,333.936 93.825,333.936 148.450 M101.512 54.030 C 101.886 54.103,102.498 54.103,102.872 54.030 C 103.246 53.958,102.940 53.899,102.192 53.899 C 101.444 53.899,101.138 53.958,101.512 54.030 M136.886 54.030 C 137.260 54.103,137.872 54.103,138.246 54.030 C 138.621 53.958,138.314 53.899,137.566 53.899 C 136.818 53.899,136.512 53.958,136.886 54.030 M172.415 54.034 C 172.875 54.104,173.555 54.102,173.927 54.030 C 174.299 53.958,173.923 53.901,173.091 53.904 C 172.260 53.906,171.956 53.965,172.415 54.034 M97.354 54.774 C 96.606 55.122,95.949 55.525,95.893 55.670 C 95.838 55.815,95.616 55.933,95.401 55.933 C 94.291 55.933,90.699 60.729,90.148 62.946 C 86.385 78.093,106.048 85.074,113.827 71.353 C 114.720 69.779,114.723 62.935,113.832 61.376 C 111.560 57.400,107.500 54.119,104.913 54.169 L 103.855 54.189 104.927 54.399 C 113.282 56.035,117.077 67.084,111.640 73.946 C 105.002 82.325,91.607 78.513,90.232 67.855 C 89.684 63.602,90.960 60.418,94.586 56.988 C 95.446 56.175,98.729 54.487,99.773 54.322 C 100.432 54.217,100.413 54.198,99.622 54.172 C 99.123 54.155,98.103 54.426,97.354 54.774 M132.729 54.877 C 131.980 55.274,131.088 55.729,130.745 55.888 C 126.165 58.012,123.717 67.027,126.406 71.866 C 133.710 85.014,152.663 78.208,149.729 63.492 C 149.080 60.237,144.888 55.026,142.918 55.026 C 142.751 55.026,143.214 55.447,143.946 55.961 C 154.172 63.146,149.807 78.609,137.552 78.609 C 123.506 78.609,121.331 57.089,135.105 54.403 L 136.206 54.189 135.147 54.172 C 134.565 54.163,133.477 54.480,132.729 54.877 M140.287 54.416 C 140.869 54.540,141.618 54.740,141.950 54.859 C 142.546 55.073,142.546 55.069,141.968 54.598 C 141.645 54.335,140.897 54.135,140.305 54.154 L 139.229 54.189 140.287 54.416 M167.660 55.121 C 163.150 57.531,160.741 61.445,160.754 66.340 C 160.763 69.317,161.629 72.562,162.415 72.562 C 162.550 72.562,162.661 72.772,162.661 73.029 C 162.661 74.367,165.836 76.803,169.700 78.430 C 174.071 80.270,182.089 76.924,184.122 72.411 C 186.168 67.872,186.137 64.216,184.019 60.224 C 182.494 57.349,177.962 54.044,175.704 54.161 L 174.906 54.202 175.661 54.322 C 182.052 55.335,186.730 63.280,184.756 69.769 C 180.671 83.202,161.089 80.390,161.111 66.373 C 161.120 60.679,165.188 55.506,170.522 54.407 L 171.580 54.189 170.522 54.173 C 169.885 54.163,168.744 54.541,167.660 55.121 M93.294 101.760 C 92.625 102.430,92.560 230.096,93.229 230.651 C 93.530 230.902,120.606 230.971,196.101 230.915 L 298.564 230.839 298.604 230.154 C 298.638 229.584,298.621 229.572,298.507 230.079 L 298.371 230.688 195.930 230.688 C 102.796 230.688,93.472 230.644,93.305 230.210 C 93.065 229.584,93.065 102.993,93.305 102.368 C 93.604 101.589,298.303 101.639,298.507 102.419 C 298.616 102.838,298.652 102.814,298.680 102.303 C 298.703 101.873,298.488 101.597,298.035 101.476 C 296.239 100.994,93.779 101.276,93.294 101.760 M191.301 112.827 C 189.323 113.898,188.154 116.672,187.162 122.650 C 186.732 125.239,186.490 125.487,183.522 126.381 C 182.275 126.756,181.114 127.174,180.942 127.309 C 179.674 128.305,176.819 129.397,176.262 129.099 C 175.706 128.801,172.052 126.180,171.219 125.481 C 167.378 122.258,163.493 123.256,158.585 128.726 C 155.468 132.200,155.202 132.793,155.492 135.609 C 155.661 137.249,155.765 137.431,159.788 143.154 C 161.100 145.021,161.102 144.981,159.663 147.963 C 159.012 149.312,158.162 151.408,157.773 152.621 L 157.067 154.826 155.556 155.230 C 154.724 155.453,152.683 155.882,151.020 156.183 C 149.358 156.485,148.254 156.787,148.569 156.854 C 148.884 156.922,150.040 156.771,151.139 156.518 C 152.238 156.266,153.808 155.980,154.629 155.881 C 156.852 155.616,157.366 155.138,158.141 152.620 C 158.514 151.407,159.404 149.285,160.119 147.903 C 161.557 145.121,161.555 145.051,159.965 142.857 C 155.613 136.849,154.711 134.224,156.274 132.109 C 156.627 131.632,156.916 131.175,156.916 131.094 C 156.916 130.748,162.275 125.386,163.182 124.826 C 165.981 123.096,169.918 124.379,174.906 128.646 C 176.369 129.898,176.877 129.879,179.483 128.469 C 180.790 127.762,182.336 127.080,182.918 126.953 C 186.759 126.115,186.991 125.885,187.623 122.298 C 188.358 118.126,188.673 116.751,189.057 116.037 C 190.803 112.783,191.560 112.472,197.732 112.472 C 204.732 112.472,207.082 114.084,207.111 118.907 C 207.114 119.442,207.317 120.559,207.563 121.391 C 207.993 122.850,208.004 122.861,207.875 121.693 C 207.226 115.839,206.462 114.092,203.967 112.755 C 202.300 111.861,192.987 111.915,191.301 112.827 M208.036 124.166 C 208.008 125.272,208.669 126.072,209.621 126.088 C 209.983 126.094,210.620 126.293,211.036 126.531 C 211.451 126.768,212.063 126.971,212.396 126.980 C 212.729 126.990,214.217 127.607,215.703 128.352 C 218.890 129.948,218.943 129.954,220.365 128.850 C 221.620 127.875,224.467 125.944,226.104 124.956 C 227.728 123.978,230.587 124.001,232.180 125.006 C 234.079 126.205,238.422 130.680,239.108 132.144 C 239.454 132.881,239.741 133.244,239.747 132.949 C 239.774 131.629,234.268 125.626,231.928 124.426 C 229.346 123.101,224.980 124.464,221.466 127.691 C 221.134 127.996,220.353 128.509,219.731 128.829 L 218.600 129.412 216.254 128.242 C 214.963 127.598,212.716 126.695,211.259 126.235 C 208.940 125.503,208.588 125.300,208.436 124.604 C 208.140 123.256,208.061 123.169,208.036 124.166 M239.799 134.786 C 239.755 136.191,238.890 138.379,237.806 139.834 C 234.192 144.679,234.029 145.096,235.018 146.969 C 235.997 148.825,237.944 153.657,237.944 154.230 C 237.944 155.115,239.090 155.777,241.033 156.015 C 247.219 156.772,250.642 158.248,250.642 160.158 C 250.642 160.370,250.769 160.544,250.925 160.544 C 251.080 160.544,251.264 160.918,251.333 161.376 C 251.453 162.166,251.461 162.169,251.494 161.451 C 251.624 158.673,248.508 156.743,242.434 155.839 C 238.548 155.261,238.634 155.345,237.064 150.551 C 236.925 150.127,236.306 148.744,235.689 147.479 L 234.567 145.178 236.482 142.398 C 239.821 137.553,240.367 136.276,239.978 134.212 C 239.895 133.771,239.824 133.997,239.799 134.786 M193.087 147.682 C 192.611 147.938,192.081 148.148,191.909 148.148 C 188.487 148.148,179.797 156.742,179.920 160.005 C 179.943 160.614,179.976 160.595,180.202 159.842 C 180.626 158.429,182.007 155.980,182.942 154.982 C 183.426 154.466,183.822 153.948,183.823 153.830 C 183.825 153.547,187.647 150.553,188.865 149.881 C 203.210 141.964,220.064 155.202,215.721 170.975 C 210.349 190.483,182.080 188.488,179.306 168.405 L 179.076 166.742 179.042 168.405 C 179.023 169.353,179.194 170.393,179.441 170.824 C 179.678 171.240,179.878 171.888,179.883 172.266 C 179.939 175.847,188.416 184.127,192.027 184.127 C 192.272 184.127,192.642 184.297,192.849 184.505 C 193.861 185.518,204.440 184.685,205.291 183.526 C 205.374 183.412,206.194 182.979,207.113 182.562 C 209.275 181.581,213.098 177.874,214.074 175.813 C 214.468 174.981,214.942 174.097,215.128 173.847 C 217.384 170.822,217.092 161.707,214.601 157.432 C 214.137 156.635,213.757 155.839,213.757 155.663 C 213.757 154.211,205.663 148.148,203.723 148.148 C 203.488 148.148,203.126 147.978,202.918 147.770 C 202.307 147.158,194.195 147.085,193.087 147.682 M146.445 157.707 C 145.020 158.631,143.791 160.664,143.995 161.758 C 144.135 162.505,144.136 162.505,144.177 161.695 C 144.217 160.889,145.304 158.742,145.684 158.718 C 145.922 158.703,148.040 156.916,147.819 156.916 C 147.734 156.916,147.116 157.272,146.445 157.707 M179.300 161.431 C 179.128 161.753,179.008 162.807,179.033 163.775 L 179.079 165.533 179.283 163.719 C 179.395 162.721,179.593 161.667,179.723 161.376 C 180.044 160.656,179.690 160.702,179.300 161.431 M251.667 166.138 C 251.668 168.299,251.716 169.144,251.774 168.015 C 251.832 166.885,251.832 165.117,251.773 164.084 C 251.714 163.052,251.666 163.976,251.667 166.138 M143.730 166.289 C 143.730 168.367,143.778 169.218,143.837 168.178 C 143.896 167.139,143.896 165.438,143.837 164.399 C 143.778 163.360,143.730 164.210,143.730 166.289 M143.961 171.014 C 143.936 171.535,144.119 172.128,144.369 172.336 C 144.618 172.543,144.822 172.887,144.822 173.100 C 144.822 174.337,148.279 175.742,152.925 176.394 C 156.913 176.954,157.033 177.034,157.839 179.664 C 158.209 180.871,159.037 182.911,159.679 184.196 C 161.115 187.070,161.116 187.185,159.707 189.088 C 153.883 196.956,153.867 198.898,159.588 204.457 C 163.334 208.098,163.919 208.409,166.757 208.265 L 168.951 208.155 172.865 205.504 L 176.780 202.854 179.017 204.016 C 181.259 205.179,184.384 206.344,184.624 206.105 C 184.694 206.034,184.305 205.810,183.759 205.605 C 180.846 204.514,180.310 204.301,179.894 204.066 C 176.924 202.385,176.383 202.336,174.994 203.625 C 174.544 204.042,174.096 204.384,173.999 204.384 C 173.901 204.384,173.113 204.919,172.247 205.572 C 169.083 207.960,165.971 208.634,163.629 207.439 C 162.551 206.889,157.475 202.096,156.689 200.885 C 155.546 199.126,155.403 195.578,156.429 194.444 C 156.697 194.148,156.916 193.758,156.916 193.577 C 156.916 193.396,157.018 193.202,157.143 193.147 C 157.487 192.994,158.730 191.149,158.730 190.791 C 158.730 190.618,158.848 190.476,158.992 190.476 C 159.263 190.476,160.840 188.289,161.202 187.410 C 161.328 187.106,160.901 185.878,160.100 184.236 C 159.381 182.762,158.498 180.580,158.138 179.387 C 157.335 176.724,157.236 176.639,154.464 176.254 C 148.986 175.493,145.126 174.163,145.125 173.037 C 145.125 172.841,144.932 172.488,144.696 172.252 C 144.460 172.016,144.208 171.428,144.136 170.946 L 144.006 170.068 143.961 171.014 M251.288 170.588 C 251.246 171.118,250.253 173.050,249.628 173.819 C 249.074 174.499,247.328 175.154,245.049 175.536 C 240.155 176.357,239.341 176.571,238.652 177.218 C 238.263 177.584,237.945 178.098,237.945 178.360 C 237.946 178.629,238.198 178.423,238.526 177.885 C 239.048 177.030,239.331 176.897,241.322 176.578 C 246.278 175.783,248.073 175.315,249.060 174.562 C 250.369 173.564,251.620 171.562,251.458 170.726 C 251.371 170.283,251.316 170.238,251.288 170.588 M237.401 179.668 C 237.212 180.042,236.562 181.572,235.956 183.069 C 235.350 184.565,234.714 185.963,234.542 186.175 C 234.370 186.387,234.293 186.624,234.370 186.701 C 234.593 186.923,235.687 184.814,236.866 181.888 C 237.878 179.378,238.181 178.121,237.401 179.668 M234.337 187.647 C 234.326 188.004,234.520 188.373,234.769 188.469 C 235.019 188.565,235.223 188.805,235.223 189.003 C 235.223 189.201,235.750 190.060,236.393 190.913 C 240.911 196.897,240.796 198.986,235.662 204.152 C 231.145 208.697,228.906 209.300,225.404 206.917 C 222.541 204.967,222.093 204.687,221.542 204.496 C 221.251 204.396,221.013 204.204,221.013 204.071 C 221.013 203.938,220.522 203.525,219.922 203.154 L 218.831 202.480 216.974 203.391 C 215.234 204.245,214.501 204.551,211.262 205.778 C 210.556 206.045,209.668 206.384,209.291 206.530 C 208.523 206.827,207.996 207.942,208.044 209.166 C 208.069 209.787,208.143 209.682,208.359 208.719 C 208.717 207.125,208.992 206.910,212.023 205.853 C 213.392 205.375,215.461 204.514,216.619 203.939 C 219.021 202.748,218.357 202.578,222.520 205.442 C 229.061 209.942,230.606 209.814,236.042 204.324 C 239.382 200.950,240.222 199.371,239.927 197.014 C 239.718 195.342,239.370 194.671,236.584 190.574 C 235.586 189.107,234.677 187.702,234.564 187.453 C 234.412 187.118,234.353 187.168,234.337 187.647 M185.543 206.502 C 186.467 206.875,186.817 207.666,187.320 210.519 C 187.833 213.425,188.469 215.659,188.200 213.605 C 187.436 207.784,186.832 206.169,185.435 206.217 C 184.973 206.233,184.991 206.280,185.543 206.502 M207.456 211.598 C 207.263 212.242,207.105 213.192,207.105 213.710 C 207.105 218.144,204.558 219.803,197.755 219.803 C 191.393 219.803,190.664 219.510,189.116 216.327 C 188.370 214.791,188.058 214.840,188.723 216.388 C 190.127 219.657,191.226 220.106,197.817 220.105 C 205.196 220.103,206.393 219.274,207.559 213.364 C 208.109 210.571,208.053 209.605,207.456 211.598 M58.102 250.038 C 57.906 256.025,63.153 262.443,70.392 265.069 L 72.714 265.911 195.767 265.909 C 293.291 265.908,319.009 265.830,319.728 265.531 C 320.524 265.201,320.395 265.183,318.670 265.382 C 315.254 265.776,75.149 265.660,72.693 265.263 C 65.146 264.043,59.014 257.450,58.251 249.735 C 58.162 248.833,58.140 248.877,58.102 250.038 M333.247 251.134 C 332.376 255.345,330.915 258.038,328.068 260.678 C 326.131 262.476,324.836 263.287,321.693 264.674 C 320.272 265.301,320.879 265.282,322.590 264.645 C 327.297 262.895,332.093 257.775,333.036 253.493 C 333.144 253.006,333.367 252.248,333.532 251.809 C 333.698 251.369,333.788 250.621,333.732 250.146 C 333.654 249.488,333.539 249.724,333.247 251.134 " stroke="none" fill="#7c7c7c" fill-rule="evenodd"></path></g></svg>